<svg data-v-dccd94fc="" data-v-3208ab85="" viewBox="0 0 512 512" class="icon-snow"><path data-v-dccd94fc="" d="M142.5 25.1C85.3 33.9 36.6 72.5 15.1 126c-8.6 21.4-11.5 39.2-10.9 65.4.4 15 1 20.1 3.2 30 4.8 20.9 12 37.5 24 55.6 9.1 13.7 29.2 34 42.6 42.9 23 15.4 49.3 25 75.3 27.6l6.7.7v73l3.4 3.4c3 3 4 3.4 8.6 3.4s5.6-.4 8.6-3.4l3.4-3.4V348h176v73.2l3.4 3.4c3 3 4 3.4 8.6 3.4s5.6-.4 8.6-3.4l3.4-3.4V348h19.3c14.8 0 21.3-.5 28.2-1.9 39.4-8.1 70.5-39.4 78.7-79.1 2.9-13.9 2.1-36.8-1.7-49.5-10.9-36.7-40.5-64.1-77.4-71.7-7.9-1.6-12.2-1.9-24.6-1.5-18.4.6-26.6 2.5-42 10.1-23.4 11.6-41.7 31.4-50.1 54.2-3.2 8.9-2.8 13.3 1.8 17.6 2.5 2.4 3.9 2.8 8.4 2.8 6.9 0 10-2.8 13.9-12.3 17-41.5 65.6-59.8 106-39.8 38 18.9 53.5 65.3 34.6 103.6-9.9 20-27.8 34.4-50.6 40.8l-8 2.2h-131c-146.5 0-140 .3-162.5-7.2-34.3-11.4-64.4-37.6-80.1-69.8-9.8-20.2-13.9-38-13.9-60.5 0-37.4 13.5-70 40.1-96.7 26.3-26.4 59.6-40.3 96.6-40.4 37 0 71 13.9 96.8 39.6 11 11.1 18.6 21.6 26.3 36.5 4.6 9 6.5 11.7 9.3 13.2 7.6 4.2 16.6-.6 17.6-9.4.4-3.8-.1-5.9-3.4-12.9-17.8-37.9-51.1-68.2-90.9-82.8-4.4-1.6-13.4-4.2-20-5.7-10.6-2.4-14.2-2.8-32.4-3-11.3-.1-23.2.2-26.5.7z"></path><path data-v-dccd94fc="" d="M259.4 387.4l-3.4 3.4v90.4l3.4 3.4c3 3 4 3.4 8.6 3.4s5.6-.4 8.6-3.4l3.4-3.4v-90.4l-3.4-3.4c-3-3-4-3.4-8.6-3.4s-5.6.4-8.6 3.4z"></path></svg>