<svg width="28" height="36" viewBox="0 0 28 36" fill="none" xmlns="http://www.w3.org/2000/svg">
<mask id="path-1-inside-1_2510_14948" fill="white">
<path fill-rule="evenodd" clip-rule="evenodd" d="M4.10535 4.14723C6.72991 1.49589 10.2883 0.00442346 14 0C17.7117 0.00442346 21.2701 1.49589 23.8946 4.14723C26.5192 6.79857 27.9956 10.3933 28 14.1429C28.0043 17.2056 27.014 20.1852 25.1809 22.6247L25.1796 22.6286C25.1796 22.6286 24.7965 23.1351 24.7405 23.2033L14 36L3.26456 23.2097C3.20219 23.1364 2.82038 22.6286 2.82038 22.6286C0.986353 20.188 -0.0044306 17.207 1.48946e-05 14.1429C0.00439367 10.3933 1.48079 6.79857 4.10535 4.14723Z"/>
</mask>
<path fill-rule="evenodd" clip-rule="evenodd" d="M4.10535 4.14723C6.72991 1.49589 10.2883 0.00442346 14 0C17.7117 0.00442346 21.2701 1.49589 23.8946 4.14723C26.5192 6.79857 27.9956 10.3933 28 14.1429C28.0043 17.2056 27.014 20.1852 25.1809 22.6247L25.1796 22.6286C25.1796 22.6286 24.7965 23.1351 24.7405 23.2033L14 36L3.26456 23.2097C3.20219 23.1364 2.82038 22.6286 2.82038 22.6286C0.986353 20.188 -0.0044306 17.207 1.48946e-05 14.1429C0.00439367 10.3933 1.48079 6.79857 4.10535 4.14723Z" fill="#2696FD"/>
<path d="M14 0L14.0012 -1L13.9988 -0.999999L14 0ZM4.10535 4.14723L3.39466 3.44372V3.44372L4.10535 4.14723ZM23.8946 4.14723L24.6053 3.44372L23.8946 4.14723ZM28 14.1429L27 14.144L27 14.1443L28 14.1429ZM25.1809 22.6247L24.3814 22.024L24.2827 22.1554L24.2312 22.3116L25.1809 22.6247ZM25.1796 22.6286L25.9772 23.2318L26.0774 23.0994L26.1293 22.9417L25.1796 22.6286ZM24.7405 23.2033L25.5065 23.8462L25.5131 23.8382L24.7405 23.2033ZM14 36L13.234 36.6429L14 37.5555L14.766 36.6429L14 36ZM3.26456 23.2097L4.03053 22.5668L4.02614 22.5616L3.26456 23.2097ZM2.82038 22.6286L2.02094 23.2293L2.02108 23.2295L2.82038 22.6286ZM1.48946e-05 14.1429L1.00001 14.1443L1.00001 14.144L1.48946e-05 14.1429ZM13.9988 -0.999999C10.019 -0.995256 6.20567 0.604032 3.39466 3.44372L4.81604 4.85074C7.25415 2.38775 10.5576 1.0041 14.0012 0.999999L13.9988 -0.999999ZM24.6053 3.44372C21.7943 0.604032 17.981 -0.995256 14.0012 -0.999999L13.9988 0.999999C17.4424 1.0041 20.7459 2.38775 23.184 4.85074L24.6053 3.44372ZM29 14.1417C28.9953 10.1306 27.416 6.28308 24.6053 3.44372L23.184 4.85074C25.6224 7.31407 26.9959 10.656 27 14.144L29 14.1417ZM25.9803 23.2254C27.9444 20.6116 29.0046 17.4205 29 14.1414L27 14.1443C27.004 16.9907 26.0836 19.7588 24.3814 22.024L25.9803 23.2254ZM26.1293 22.9417L26.1306 22.9378L24.2312 22.3116L24.2299 22.3154L26.1293 22.9417ZM25.5131 23.8382C25.5567 23.7852 25.683 23.6194 25.7771 23.4956C25.8289 23.4275 25.8789 23.3615 25.9159 23.3127C25.9345 23.2883 25.9497 23.2681 25.9604 23.254C25.9658 23.2469 25.9699 23.2414 25.9728 23.2376C25.9742 23.2357 25.9753 23.2343 25.9761 23.2333C25.9764 23.2328 25.9767 23.2324 25.9769 23.2322C25.977 23.232 25.9771 23.2319 25.9771 23.2319C25.9772 23.2318 25.9772 23.2318 25.9772 23.2318C25.9772 23.2318 25.9772 23.2318 25.9772 23.2318C25.9772 23.2318 25.9772 23.2318 25.1796 22.6286C24.382 22.0254 24.382 22.0254 24.382 22.0254C24.382 22.0254 24.382 22.0254 24.382 22.0254C24.382 22.0254 24.382 22.0254 24.382 22.0255C24.3819 22.0255 24.3819 22.0256 24.3818 22.0257C24.3816 22.026 24.3813 22.0263 24.381 22.0268C24.3803 22.0277 24.3792 22.0291 24.3778 22.0309C24.375 22.0346 24.3709 22.04 24.3657 22.047C24.3552 22.0608 24.3401 22.0808 24.3218 22.1049C24.2853 22.1532 24.236 22.2181 24.1851 22.2851C24.134 22.3523 24.0819 22.4206 24.0394 22.476C24.0181 22.5038 23.9999 22.5273 23.9859 22.5454C23.9694 22.5666 23.9651 22.5718 23.9679 22.5684L25.5131 23.8382ZM14.766 36.6429L25.5065 23.8462L23.9746 22.5604L13.234 35.3571L14.766 36.6429ZM2.4986 23.8526L13.234 36.6429L14.766 35.3571L4.03051 22.5668L2.4986 23.8526ZM2.82038 22.6286C2.02108 23.2295 2.02108 23.2295 2.02109 23.2295C2.02109 23.2295 2.0211 23.2295 2.0211 23.2295C2.02112 23.2296 2.02114 23.2296 2.02117 23.2296C2.02122 23.2297 2.0213 23.2298 2.0214 23.2299C2.02159 23.2302 2.02188 23.2306 2.02226 23.2311C2.02302 23.2321 2.02412 23.2336 2.02556 23.2355C2.02844 23.2393 2.03264 23.2449 2.03799 23.252C2.0487 23.2662 2.06403 23.2866 2.0826 23.3112C2.11971 23.3604 2.16998 23.427 2.22234 23.496C2.31344 23.6161 2.44828 23.7935 2.50298 23.8578L4.02614 22.5616C4.03014 22.5664 4.01168 22.5435 3.96138 22.4782C3.91889 22.4229 3.86692 22.3547 3.81582 22.2873C3.76493 22.2202 3.71584 22.1553 3.67942 22.107C3.66122 22.0828 3.64623 22.0629 3.63582 22.0491C3.63061 22.0422 3.62654 22.0368 3.6238 22.0331C3.62242 22.0313 3.62138 22.0299 3.62068 22.029C3.62034 22.0285 3.62008 22.0282 3.61991 22.028C3.61982 22.0278 3.61976 22.0278 3.61972 22.0277C3.6197 22.0277 3.61969 22.0277 3.61968 22.0276C3.61968 22.0276 3.61968 22.0276 3.61967 22.0276C3.61967 22.0276 3.61968 22.0276 2.82038 22.6286ZM-0.999984 14.1414C-1.00474 17.4219 0.0559207 20.6144 2.02094 23.2293L3.61981 22.0278C1.91678 19.7616 0.995882 16.9921 1.00001 14.1443L-0.999984 14.1414ZM3.39466 3.44372C0.583996 6.28308 -0.9953 10.1306 -0.999984 14.1417L1.00001 14.144C1.00409 10.656 2.37759 7.31407 4.81604 4.85074L3.39466 3.44372Z" fill="white" mask="url(#path-1-inside-1_2510_14948)"/>
</svg>